<svg width="195" height="78" viewBox="0 0 195 78" fill="none" xmlns="http://www.w3.org/2000/svg">
<path d="M92.879 20.588H97.8427C99.8519 20.588 101.199 21.2286 101.199 23.1979C101.199 24.2656 100.703 24.9537 99.7573 25.4045C101.057 25.7841 101.696 26.7569 101.696 28.0856C101.696 30.2448 99.8755 31.1464 97.9846 31.1464H92.879V20.588ZM95.1954 24.8588H97.5355C98.3628 24.8588 98.9537 24.4792 98.9537 23.6013C98.9537 22.6047 98.1737 22.3912 97.37 22.3912H95.1954V24.8588ZM95.1954 29.3432H97.6773C98.5755 29.3432 99.3791 29.0584 99.3791 27.9433C99.3791 26.8518 98.7173 26.4248 97.7009 26.4248H95.1718V29.3432H95.1954Z" fill="white"/>
<path d="M109.259 27.2552L112.214 31.1701H109.378L106.73 27.3738H105.596V31.1701H103.256V20.588H108.007C110.654 20.588 111.67 22.2726 111.67 23.9809C111.67 25.4282 110.914 26.8756 109.165 27.2552H109.259ZM105.596 22.3912V25.5706H107.392C108.503 25.5706 109.425 25.3096 109.425 23.9809C109.425 22.6047 108.503 22.3912 107.392 22.3912H105.596Z" fill="white"/>
<path d="M113.916 20.588H116.232V31.1701H113.916V20.588Z" fill="white"/>
<path d="M127.531 28.489C126.633 30.1973 124.789 31.3362 122.756 31.3362C119.754 31.3362 117.32 28.8686 117.32 25.8553C117.32 22.842 119.778 20.3981 122.756 20.3981C124.789 20.3981 126.585 21.537 127.531 23.1742C126.609 23.6487 126.538 23.6962 125.498 24.2182C124.954 23.2691 123.938 22.6522 122.756 22.6522C120.983 22.6522 119.565 24.0758 119.565 25.8553C119.565 27.6585 120.983 29.0584 122.756 29.0584C123.938 29.0584 125.12 28.4653 125.545 27.4687H125.309C124.836 27.4687 123.749 27.4925 123.158 27.4925C122.874 27.4925 122.756 27.4925 122.756 27.4687V25.5231C124.245 25.5231 126.325 25.5469 128.145 25.5469C128.145 25.8316 128.098 27.7772 127.531 28.489Z" fill="white"/>
<path d="M136.3 26.6146H131.407V31.1227H129.138V20.5168H131.407V24.3605H136.3V20.5405H138.569V31.1227H136.3V26.6146Z" fill="white"/>
<path d="M143.108 22.5336H139.751V20.588H148.733V22.5336H145.4V31.1464H143.084V22.5336H143.108Z" fill="white"/>
<path d="M102.239 42.0844C101.341 43.7928 99.4973 44.9317 97.4646 44.9317C94.4627 44.9317 92.028 42.4641 92.028 39.4508C92.028 36.4375 94.4863 33.9936 97.4646 33.9936C99.4973 33.9936 101.294 35.1325 102.239 36.7696C101.317 37.2442 101.246 37.2916 100.206 37.8136C99.6628 36.8645 98.6464 36.2476 97.4646 36.2476C95.6918 36.2476 94.2736 37.6713 94.2736 39.4508C94.2736 41.254 95.6918 42.6539 97.4646 42.6539C98.6464 42.6539 99.8283 42.0607 100.254 41.0642H100.017C99.5446 41.0642 98.4573 41.0879 97.8664 41.0879C97.5827 41.0879 97.4646 41.0879 97.4646 41.0642V39.1186C98.9537 39.1186 101.034 39.1423 102.854 39.1423C102.854 39.4033 102.783 41.3726 102.239 42.0844Z" fill="white"/>
<path d="M103.847 44.6707V34.1122H106.116V42.7014H111.529V44.647H103.847V44.6707Z" fill="white"/>
<path d="M117.911 44.8842C114.909 44.8842 112.474 42.4404 112.474 39.4271C112.474 36.39 114.909 33.9462 117.911 33.9462C120.912 33.9462 123.371 36.39 123.371 39.4271C123.371 42.4404 120.889 44.8842 117.911 44.8842ZM114.696 39.4033C114.696 41.1591 116.161 42.6302 117.911 42.6302C119.66 42.6302 121.102 41.1591 121.102 39.4033C121.102 37.6476 119.66 36.1528 117.911 36.1528C116.138 36.1765 114.696 37.6476 114.696 39.4033Z" fill="white"/>
<path d="M124.482 34.1597H129.445C131.455 34.1597 132.802 34.8004 132.802 36.7697C132.802 37.8374 132.305 38.5255 131.36 38.9763C132.66 39.3559 133.298 40.3287 133.298 41.6574C133.298 43.8166 131.478 44.7182 129.587 44.7182H124.482V34.1597ZM126.798 38.4543H129.138C129.965 38.4543 130.556 38.0747 130.556 37.1968C130.556 36.2002 129.8 35.9867 128.973 35.9867H126.798V38.4543ZM126.798 42.9387H129.28C130.178 42.9387 130.982 42.6539 130.982 41.5388C130.982 40.4473 130.32 40.0203 129.304 40.0203H126.774V42.9387H126.798Z" fill="white"/>
<path d="M133.96 44.7419L138.735 34.1834H141.075L145.779 44.7419H143.533L142.493 42.3929H137.175L136.064 44.7419H133.96ZM139.94 36.1765L138.167 40.2575H141.666L139.94 36.1765Z" fill="white"/>
<path d="M146.653 44.6707V34.1122H148.922V42.7014H154.335V44.647H146.653V44.6707Z" fill="white"/>
<path d="M91.8626 58.3374L96.6373 47.7789H98.9773L103.681 58.3374H101.436L100.396 55.9884H95.0772L93.9663 58.3374H91.8626ZM97.8427 49.7483L96.07 53.8293H99.5682L97.8427 49.7483Z" fill="white"/>
<path d="M109.567 58.3611C106.612 58.3611 104.225 55.9647 104.225 52.9988C104.225 50.0567 106.612 47.6365 109.567 47.6365C111.599 47.6365 113.301 48.7517 114.2 50.3889C113.301 50.8634 113.23 50.9108 112.214 51.3854C111.694 50.4838 110.701 49.8669 109.567 49.8669C107.841 49.8669 106.447 51.2905 106.447 52.9988C106.447 54.7309 107.841 56.1307 109.567 56.1307C110.749 56.1307 111.789 55.4901 112.309 54.4936C113.301 55.0156 113.349 55.063 114.294 55.4901C113.396 57.2222 111.647 58.3611 109.567 58.3611Z" fill="white"/>
<path d="M120.511 58.3611C117.556 58.3611 115.169 55.9647 115.169 52.9988C115.169 50.0567 117.556 47.6365 120.511 47.6365C122.543 47.6365 124.245 48.7517 125.143 50.3889C124.245 50.8634 124.174 50.9108 123.158 51.3854C122.638 50.4838 121.645 49.8669 120.511 49.8669C118.785 49.8669 117.391 51.2905 117.391 52.9988C117.391 54.7309 118.785 56.1307 120.511 56.1307C121.692 56.1307 122.733 55.4901 123.253 54.4936C124.245 55.0156 124.293 55.063 125.238 55.4901C124.316 57.2222 122.591 58.3611 120.511 58.3611Z" fill="white"/>
<path d="M131.36 58.4797C128.358 58.4797 125.924 56.0358 125.924 53.0225C125.924 49.9855 128.358 47.5416 131.36 47.5416C134.362 47.5416 136.82 49.9855 136.82 53.0225C136.82 56.0358 134.338 58.4797 131.36 58.4797ZM128.122 52.9988C128.122 54.7546 129.587 56.2257 131.336 56.2257C133.086 56.2257 134.527 54.7546 134.527 52.9988C134.527 51.243 133.086 49.7482 131.336 49.7482C129.587 49.7482 128.122 51.243 128.122 52.9988Z" fill="white"/>
<path d="M147.102 54.3275C147.102 57.1985 145.424 58.5746 142.611 58.5746C139.751 58.5746 138.12 57.2222 138.12 54.3275V47.7552H140.437V54.3275C140.437 55.4901 140.72 56.629 142.611 56.629C144.266 56.629 144.786 55.9172 144.786 54.3275V47.7552H147.102V54.3275Z" fill="white"/>
<path d="M150.884 51.0295V58.3374H148.851V47.7078H151.499L156.203 54.3276V47.7078H158.164V58.3374H156.203L150.884 51.0295Z" fill="white"/>
<path d="M162.679 49.7245H159.323V47.7789H168.305V49.7245H164.972V58.3374H162.655V49.7245H162.679Z" fill="white"/>
<path d="M169.652 47.7552H171.968V58.3374H169.652V47.7552Z" fill="white"/>
<path d="M175.703 51.0295V58.3374H173.67V47.7078H176.318L181.021 54.3276V47.7078H182.983V58.3374H181.021L175.703 51.0295Z" fill="white"/>
<path d="M194.211 55.68C193.313 57.3883 191.469 58.5272 189.436 58.5272C186.434 58.5272 184 56.0596 184 53.0463C184 50.033 186.458 47.5891 189.436 47.5891C191.469 47.5891 193.265 48.728 194.211 50.3652C193.289 50.8397 193.218 50.8871 192.178 51.4091C191.634 50.4601 190.618 49.8432 189.436 49.8432C187.663 49.8432 186.245 51.2668 186.245 53.0463C186.245 54.8495 187.663 56.2494 189.436 56.2494C190.618 56.2494 191.8 55.6562 192.225 54.6597H191.989C191.516 54.6597 190.429 54.6834 189.838 54.6834C189.554 54.6834 189.436 54.6834 189.436 54.6597V52.7141C190.925 52.7141 193.005 52.7378 194.825 52.7378C194.802 52.9988 194.754 54.9682 194.211 55.68Z" fill="white"/>
<path d="M94.2263 63.1776C94.2263 63.7233 93.8008 64.0792 93.2099 64.0792H91.7444V60.971H93.0444C93.6826 60.971 94.0844 61.3269 94.0844 61.8726C94.0844 62.1099 93.9899 62.3234 93.7772 62.4658C94.0372 62.5844 94.2263 62.8692 94.2263 63.1776ZM92.9735 61.6591H92.548V62.1811H92.9735C93.1626 62.1811 93.2808 62.0862 93.2808 61.9201C93.2572 61.754 93.1626 61.6591 92.9735 61.6591ZM93.399 63.1064C93.399 62.9403 93.2808 62.8454 93.0917 62.8454H92.548V63.3674H93.0917C93.2808 63.3674 93.399 63.2725 93.399 63.1064Z" fill="white"/>
<path d="M97.5827 64.0318V64.0793H96.7082L96.5191 63.6759H95.3609L95.1954 64.0793H94.3208V64.0318L95.7863 60.9236H96.1409L97.5827 64.0318ZM95.6445 62.9878H96.2118L95.9281 62.2286L95.6445 62.9878Z" fill="white"/>
<path d="M101.79 60.971V64.0792H97.8664V60.971H98.67V63.3437H99.4264V60.971H100.23V63.3437H100.986V60.971H101.79Z" fill="white"/>
<path d="M105.997 63.059C105.997 63.6047 105.619 64.0792 104.887 64.0792H103.492V60.971H105.714V61.6828H104.272V62.0862H104.863C105.643 62.0862 105.997 62.5133 105.997 63.059ZM105.194 63.059C105.194 62.8929 105.076 62.7505 104.863 62.7505H104.296V63.3674H104.863C105.076 63.3674 105.194 63.2013 105.194 63.059Z" fill="white"/>
<path d="M109.141 60.9473V64.0792H108.338V63.0352V62.5132L106.707 64.0792H106.447V60.971H107.25V61.9438L107.227 62.4895L108.834 60.9473H109.141Z" fill="white"/>
<path d="M112.119 63.1776C112.119 63.6996 111.694 64.1267 110.914 64.1267C110.205 64.1267 109.661 63.7233 109.661 62.9641H110.394C110.418 63.2251 110.583 63.4149 110.89 63.4149C111.221 63.4149 111.339 63.2488 111.339 63.0827C111.339 62.8929 111.198 62.7505 110.938 62.7505H110.607V62.1336H110.938C111.174 62.1336 111.316 62.015 111.316 61.8489C111.316 61.6828 111.174 61.5642 110.914 61.5642C110.654 61.5642 110.512 61.6828 110.489 61.8252H109.779C109.779 61.232 110.229 60.8998 110.914 60.8998C111.718 60.8998 112.049 61.3507 112.049 61.8252C112.049 62.0862 111.907 62.2997 111.694 62.4421C111.954 62.5844 112.119 62.8692 112.119 63.1776Z" fill="white"/>
<path d="M115.287 60.971V64.0792H114.483V62.8454H113.443V64.0792H112.639V60.971H113.443V62.1099H114.483V60.971H115.287Z" fill="white"/>
<path d="M117.911 63.3437V64.0792H115.925V60.971H117.863V61.7065H116.729V62.1574H117.769V62.8692H116.729V63.3437H117.911Z" fill="white"/>
<path d="M118.265 62.5133C118.265 61.5642 118.903 60.8998 119.825 60.8998C120.652 60.8998 121.172 61.3744 121.338 62.0862H120.534C120.416 61.8252 120.18 61.6828 119.872 61.6828C119.423 61.6828 119.116 62.015 119.116 62.5133C119.116 63.0115 119.423 63.3437 119.872 63.3437C120.203 63.3437 120.463 63.1539 120.582 62.8929H121.385C121.243 63.6284 120.7 64.1267 119.849 64.1267C118.927 64.1267 118.265 63.4623 118.265 62.5133Z" fill="white"/>
<path d="M125.309 63.1776C125.309 63.7233 124.883 64.0792 124.293 64.0792H122.827V60.971H124.127C124.765 60.971 125.167 61.3269 125.167 61.8726C125.167 62.1099 125.073 62.3234 124.86 62.4658C125.143 62.5844 125.309 62.8692 125.309 63.1776ZM124.056 61.6591H123.631V62.1811H124.056C124.245 62.1811 124.363 62.0862 124.363 61.9201C124.34 61.754 124.245 61.6591 124.056 61.6591ZM124.482 63.1064C124.482 62.9403 124.363 62.8454 124.174 62.8454H123.631V63.3674H124.174C124.363 63.3674 124.482 63.2725 124.482 63.1064Z" fill="white"/>
<path d="M129.729 63.3437V64.7436H128.973V64.0792H126.869V60.971H127.673V63.3437H128.571V60.971H129.375V63.3437H129.729Z" fill="white"/>
<path d="M132.944 60.9473V64.0792H132.14V63.0352V62.5132L130.509 64.0792H130.249V60.971H131.053V61.9438L131.029 62.4895L132.636 60.9473H132.944Z" fill="white"/>
<path d="M135.638 63.7708V64.1267H134.882V63.7708C134.078 63.7471 133.416 63.3437 133.416 62.5133C133.416 61.6828 134.078 61.2795 134.882 61.232V60.8998H135.638V61.232C136.466 61.2557 137.104 61.6354 137.104 62.5133C137.08 63.3912 136.418 63.7471 135.638 63.7708ZM134.882 63.1064V61.9438C134.527 61.9675 134.22 62.0625 134.22 62.5133C134.22 62.9641 134.575 63.0827 134.882 63.1064ZM136.277 62.5133C136.277 62.0625 135.969 61.9438 135.615 61.9438V63.1064C135.946 63.0827 136.277 62.9641 136.277 62.5133Z" fill="white"/>
<path d="M140.082 62.0862C140.082 62.7743 139.609 63.2251 138.924 63.2251H138.38V64.0792H137.577V60.971H138.947C139.609 60.971 140.082 61.4218 140.082 62.0862ZM139.255 62.0862C139.255 61.8252 139.089 61.6591 138.829 61.6591H138.357V62.5133H138.829C139.089 62.5133 139.255 62.3709 139.255 62.0862Z" fill="white"/>
<path d="M143.226 64.0318V64.0793H142.351L142.162 63.6759H141.004L140.838 64.0793H139.964V64.0318L141.429 60.9236H141.784L143.226 64.0318ZM141.311 62.9878H141.878L141.595 62.2286L141.311 62.9878Z" fill="white"/>
<path d="M146.275 64.0318V64.0792H145.353L144.739 63.059L144.124 64.0792H143.202V64.0318L144.219 62.4421L143.32 61.0185V60.9948H144.219L144.762 61.8726L145.282 60.9948H146.18V61.0185L145.282 62.4658L146.275 64.0318Z" fill="white"/>
<path d="M147.504 62.4658H149.419V63.1064H147.504V62.4658Z" fill="white"/>
<path d="M153.721 60.971V64.0792H152.917V62.8454H151.877V64.0792H151.073V60.971H151.877V62.1099H152.917V60.971H153.721Z" fill="white"/>
<path d="M157.266 64.0318V64.0793H156.392L156.203 63.6759H155.044L154.879 64.0793H154.004V64.0318L155.47 60.9236H155.824L157.266 64.0318ZM155.352 62.9878H155.919L155.635 62.2286L155.352 62.9878Z" fill="white"/>
<path d="M161.474 60.971V64.0792H157.55V60.971H158.353V63.3437H159.11V60.971H159.914V63.3437H160.67V60.971H161.474Z" fill="white"/>
<path d="M165.019 64.0318V64.0793H164.145L163.955 63.6759H162.797L162.632 64.0793H161.757V64.0318L163.223 60.9236H163.577L165.019 64.0318ZM163.105 62.9878H163.672L163.388 62.2286L163.105 62.9878Z" fill="white"/>
<path d="M166.272 60.971H168.848V64.0792H168.045V61.7065H167.099V64.0792H166.296V60.971H166.272Z" fill="white"/>
<path d="M172.016 62.0862C172.016 62.7743 171.543 63.2251 170.857 63.2251H170.314V64.0792H169.51V60.971H170.881C171.567 60.971 172.016 61.4218 172.016 62.0862ZM171.188 62.0862C171.188 61.8252 171.023 61.6591 170.763 61.6591H170.29V62.5133H170.763C171.047 62.5133 171.188 62.3709 171.188 62.0862Z" fill="white"/>
<path d="M172.276 62.5133C172.276 61.5642 172.938 60.8998 173.907 60.8998C174.852 60.8998 175.538 61.5642 175.538 62.5133C175.538 63.4623 174.876 64.1267 173.907 64.1267C172.961 64.1267 172.276 63.4623 172.276 62.5133ZM174.71 62.5133C174.71 62.015 174.403 61.6828 173.907 61.6828C173.434 61.6828 173.103 62.015 173.103 62.5133C173.103 63.0115 173.41 63.3437 173.907 63.3437C174.379 63.3437 174.71 63.0115 174.71 62.5133Z" fill="white"/>
<path d="M178.043 63.7708V64.1267H177.287V63.7708C176.483 63.7471 175.821 63.3437 175.821 62.5133C175.821 61.6828 176.483 61.2795 177.287 61.232V60.8998H178.043V61.232C178.87 61.2557 179.509 61.6354 179.509 62.5133C179.509 63.3912 178.847 63.7471 178.043 63.7708ZM177.31 63.1064V61.9438C176.956 61.9675 176.649 62.0625 176.649 62.5133C176.649 62.9641 176.979 63.0827 177.31 63.1064ZM178.705 62.5133C178.705 62.0625 178.398 61.9438 178.043 61.9438V63.1064C178.374 63.0827 178.705 62.9641 178.705 62.5133Z" fill="white"/>
<path d="M181.943 63.3437V64.0792H179.958V60.971H181.896V61.7065H180.761V62.1574H181.801V62.8692H180.761V63.3437H181.943Z" fill="white"/>
<path d="M182.321 62.5133C182.321 61.5642 182.96 60.8998 183.881 60.8998C184.709 60.8998 185.229 61.3744 185.394 62.0862H184.591C184.472 61.8252 184.236 61.6828 183.929 61.6828C183.48 61.6828 183.172 62.015 183.172 62.5133C183.172 63.0115 183.48 63.3437 183.929 63.3437C184.26 63.3437 184.52 63.1539 184.638 62.8929H185.441C185.3 63.6284 184.756 64.1267 183.905 64.1267C182.96 64.1267 182.321 63.4623 182.321 62.5133Z" fill="white"/>
<path d="M185.678 62.5133C185.678 61.5642 186.316 60.8998 187.238 60.8998C188.065 60.8998 188.585 61.3744 188.751 62.0862H187.947C187.829 61.8252 187.592 61.6828 187.285 61.6828C186.836 61.6828 186.529 62.015 186.529 62.5133C186.529 63.0115 186.836 63.3437 187.285 63.3437C187.616 63.3437 187.876 63.1539 187.994 62.8929H188.798C188.656 63.6284 188.112 64.1267 187.262 64.1267C186.34 64.1267 185.678 63.4623 185.678 62.5133Z" fill="white"/>
<path d="M191.894 60.9473V64.0792H191.091V63.0352V62.5132L189.46 64.0792H189.223V60.971H190.027V61.9438L190.003 62.4895L191.611 60.9473H191.894Z" fill="white"/>
<path d="M194.92 60.971V64.0792H194.116V63.1064H193.691L193.194 64.0792H192.344V64.0318L192.934 62.9641C192.58 62.798 192.414 62.4421 192.414 62.0624C192.414 61.5167 192.793 60.971 193.525 60.971H194.92ZM193.242 62.0387C193.242 62.2285 193.384 62.4421 193.62 62.4421H194.14V61.6828H193.62C193.36 61.6828 193.242 61.8489 193.242 62.0387Z" fill="white"/>
<path d="M86.1897 25.2621H85.0078V52.7853H86.1897V25.2621Z" fill="white"/>
<path d="M38.2302 0.704834C17.1696 0.704834 0.103699 17.8356 0.103699 38.9762C0.103699 46.0231 2.0183 52.6429 5.32748 58.3136L31.0682 32.4751H16.366C14.7114 32.4751 13.2222 31.4786 12.584 29.9363C11.9458 28.3941 12.3004 26.6383 13.4822 25.4519L23.4807 15.4155C24.2371 14.6562 25.3008 14.2054 26.3881 14.2054H54.6343C58.7708 14.2054 62.1509 17.5984 62.1509 21.7505V50.2702C62.1509 51.3617 61.7017 52.4056 60.9454 53.1886L50.9233 63.2488C49.7414 64.4352 47.9923 64.7911 46.4559 64.1504C44.9195 63.5098 43.9267 62.015 43.9267 60.3541V45.4299L17.9969 71.4109C23.8589 75.1122 30.7845 77.2714 38.2302 77.2714C59.2908 77.2714 76.3803 60.1406 76.3803 38.9762C76.3803 17.8356 59.2908 0.704834 38.2302 0.704834Z" fill="white"/>
<path d="M46.4086 60.1643C46.4086 61.6117 48.1341 62.3235 49.1505 61.3032L59.149 51.2667C59.4563 50.9583 59.6217 50.5549 59.6217 50.1279V25.9265V21.5845C59.6217 18.8084 57.3762 16.5306 54.587 16.5306H50.2615H26.3644C25.939 16.5306 25.5371 16.6967 25.2299 17.0052L15.2314 27.0416C14.215 28.0619 14.9241 29.7939 16.366 29.7939H37.072L6.6748 60.3304C9.18033 64.0081 12.3004 67.2349 15.8932 69.8449L46.4086 39.2135V60.1643Z" fill="white"/>
</svg>
