<svg width="196" height="78" viewBox="0 0 196 78" fill="none" xmlns="http://www.w3.org/2000/svg">
<path d="M93.379 20.588H98.3427C100.352 20.588 101.699 21.2286 101.699 23.1979C101.699 24.2656 101.203 24.9537 100.257 25.4045C101.557 25.7841 102.196 26.7569 102.196 28.0856C102.196 30.2448 100.376 31.1464 98.4846 31.1464H93.379V20.588ZM95.6954 24.8588H98.0355C98.8628 24.8588 99.4537 24.4792 99.4537 23.6013C99.4537 22.6047 98.6737 22.3912 97.87 22.3912H95.6954V24.8588ZM95.6954 29.3432H98.1773C99.0755 29.3432 99.8791 29.0584 99.8791 27.9433C99.8791 26.8518 99.2173 26.4248 98.2009 26.4248H95.6718V29.3432H95.6954Z" fill="#0152FF"/>
<path d="M109.759 27.2552L112.714 31.1701H109.878L107.23 27.3738H106.096V31.1701H103.756V20.588H108.507C111.154 20.588 112.17 22.2726 112.17 23.9809C112.17 25.4282 111.414 26.8756 109.665 27.2552H109.759ZM106.096 22.3912V25.5706H107.892C109.003 25.5706 109.925 25.3096 109.925 23.9809C109.925 22.6047 109.003 22.3912 107.892 22.3912H106.096Z" fill="#0152FF"/>
<path d="M114.416 20.588H116.732V31.1701H114.416V20.588Z" fill="#0152FF"/>
<path d="M128.031 28.489C127.133 30.1973 125.289 31.3362 123.256 31.3362C120.254 31.3362 117.82 28.8686 117.82 25.8553C117.82 22.842 120.278 20.3981 123.256 20.3981C125.289 20.3981 127.085 21.537 128.031 23.1742C127.109 23.6487 127.038 23.6962 125.998 24.2182C125.454 23.2691 124.438 22.6522 123.256 22.6522C121.483 22.6522 120.065 24.0758 120.065 25.8553C120.065 27.6585 121.483 29.0584 123.256 29.0584C124.438 29.0584 125.62 28.4653 126.045 27.4687H125.809C125.336 27.4687 124.249 27.4925 123.658 27.4925C123.374 27.4925 123.256 27.4925 123.256 27.4687V25.5231C124.745 25.5231 126.825 25.5469 128.645 25.5469C128.645 25.8316 128.598 27.7772 128.031 28.489Z" fill="#0152FF"/>
<path d="M136.8 26.6146H131.907V31.1227H129.638V20.5168H131.907V24.3605H136.8V20.5405H139.069V31.1227H136.8V26.6146Z" fill="#0152FF"/>
<path d="M143.608 22.5336H140.251V20.588H149.233V22.5336H145.9V31.1464H143.584V22.5336H143.608Z" fill="#0152FF"/>
<path d="M102.739 42.0844C101.841 43.7928 99.9973 44.9317 97.9646 44.9317C94.9627 44.9317 92.528 42.4641 92.528 39.4508C92.528 36.4375 94.9863 33.9936 97.9646 33.9936C99.9973 33.9936 101.794 35.1325 102.739 36.7696C101.817 37.2442 101.746 37.2916 100.706 37.8136C100.163 36.8645 99.1464 36.2476 97.9646 36.2476C96.1918 36.2476 94.7736 37.6713 94.7736 39.4508C94.7736 41.254 96.1918 42.6539 97.9646 42.6539C99.1464 42.6539 100.328 42.0607 100.754 41.0642H100.517C100.045 41.0642 98.9573 41.0879 98.3664 41.0879C98.0827 41.0879 97.9646 41.0879 97.9646 41.0642V39.1186C99.4537 39.1186 101.534 39.1423 103.354 39.1423C103.354 39.4033 103.283 41.3726 102.739 42.0844Z" fill="#20C4F4"/>
<path d="M104.347 44.6707V34.1122H106.616V42.7014H112.029V44.647H104.347V44.6707Z" fill="#20C4F4"/>
<path d="M118.411 44.8842C115.409 44.8842 112.974 42.4404 112.974 39.4271C112.974 36.39 115.409 33.9462 118.411 33.9462C121.412 33.9462 123.871 36.39 123.871 39.4271C123.871 42.4404 121.389 44.8842 118.411 44.8842ZM115.196 39.4033C115.196 41.1591 116.661 42.6302 118.411 42.6302C120.16 42.6302 121.602 41.1591 121.602 39.4033C121.602 37.6476 120.16 36.1528 118.411 36.1528C116.638 36.1765 115.196 37.6476 115.196 39.4033Z" fill="#20C4F4"/>
<path d="M124.982 34.1597H129.945C131.955 34.1597 133.302 34.8004 133.302 36.7697C133.302 37.8374 132.805 38.5255 131.86 38.9763C133.16 39.3559 133.798 40.3287 133.798 41.6574C133.798 43.8166 131.978 44.7182 130.087 44.7182H124.982V34.1597ZM127.298 38.4543H129.638C130.465 38.4543 131.056 38.0747 131.056 37.1968C131.056 36.2002 130.3 35.9867 129.473 35.9867H127.298V38.4543ZM127.298 42.9387H129.78C130.678 42.9387 131.482 42.6539 131.482 41.5388C131.482 40.4473 130.82 40.0203 129.804 40.0203H127.274V42.9387H127.298Z" fill="#20C4F4"/>
<path d="M134.46 44.7419L139.235 34.1834H141.575L146.279 44.7419H144.033L142.993 42.3929H137.675L136.564 44.7419H134.46ZM140.44 36.1765L138.667 40.2575H142.166L140.44 36.1765Z" fill="#20C4F4"/>
<path d="M147.153 44.6707V34.1122H149.422V42.7014H154.835V44.647H147.153V44.6707Z" fill="#20C4F4"/>
<path d="M92.3626 58.3374L97.1373 47.7789H99.4773L104.181 58.3374H101.936L100.896 55.9884H95.5772L94.4663 58.3374H92.3626ZM98.3427 49.7483L96.57 53.8293H100.068L98.3427 49.7483Z" fill="#0152FF"/>
<path d="M110.067 58.3611C107.112 58.3611 104.725 55.9647 104.725 52.9988C104.725 50.0567 107.112 47.6365 110.067 47.6365C112.099 47.6365 113.801 48.7517 114.7 50.3889C113.801 50.8634 113.73 50.9108 112.714 51.3854C112.194 50.4838 111.201 49.8669 110.067 49.8669C108.341 49.8669 106.947 51.2905 106.947 52.9988C106.947 54.7309 108.341 56.1307 110.067 56.1307C111.249 56.1307 112.289 55.4901 112.809 54.4936C113.801 55.0156 113.849 55.063 114.794 55.4901C113.896 57.2222 112.147 58.3611 110.067 58.3611Z" fill="#0152FF"/>
<path d="M121.011 58.3611C118.056 58.3611 115.669 55.9647 115.669 52.9988C115.669 50.0567 118.056 47.6365 121.011 47.6365C123.043 47.6365 124.745 48.7517 125.643 50.3889C124.745 50.8634 124.674 50.9108 123.658 51.3854C123.138 50.4838 122.145 49.8669 121.011 49.8669C119.285 49.8669 117.891 51.2905 117.891 52.9988C117.891 54.7309 119.285 56.1307 121.011 56.1307C122.192 56.1307 123.233 55.4901 123.753 54.4936C124.745 55.0156 124.793 55.063 125.738 55.4901C124.816 57.2222 123.091 58.3611 121.011 58.3611Z" fill="#0152FF"/>
<path d="M131.86 58.4797C128.858 58.4797 126.424 56.0358 126.424 53.0225C126.424 49.9855 128.858 47.5416 131.86 47.5416C134.862 47.5416 137.32 49.9855 137.32 53.0225C137.32 56.0358 134.838 58.4797 131.86 58.4797ZM128.622 52.9988C128.622 54.7546 130.087 56.2257 131.836 56.2257C133.586 56.2257 135.027 54.7546 135.027 52.9988C135.027 51.243 133.586 49.7482 131.836 49.7482C130.087 49.7482 128.622 51.243 128.622 52.9988Z" fill="#0152FF"/>
<path d="M147.602 54.3275C147.602 57.1985 145.924 58.5746 143.111 58.5746C140.251 58.5746 138.62 57.2222 138.62 54.3275V47.7552H140.937V54.3275C140.937 55.4901 141.22 56.629 143.111 56.629C144.766 56.629 145.286 55.9172 145.286 54.3275V47.7552H147.602V54.3275Z" fill="#0152FF"/>
<path d="M151.384 51.0295V58.3374H149.351V47.7078H151.999L156.703 54.3276V47.7078H158.664V58.3374H156.703L151.384 51.0295Z" fill="#0152FF"/>
<path d="M163.179 49.7245H159.823V47.7789H168.805V49.7245H165.472V58.3374H163.155V49.7245H163.179Z" fill="#0152FF"/>
<path d="M170.152 47.7552H172.468V58.3374H170.152V47.7552Z" fill="#0152FF"/>
<path d="M176.203 51.0295V58.3374H174.17V47.7078H176.818L181.521 54.3276V47.7078H183.483V58.3374H181.521L176.203 51.0295Z" fill="#0152FF"/>
<path d="M194.711 55.68C193.813 57.3883 191.969 58.5272 189.936 58.5272C186.934 58.5272 184.5 56.0596 184.5 53.0463C184.5 50.033 186.958 47.5891 189.936 47.5891C191.969 47.5891 193.765 48.728 194.711 50.3652C193.789 50.8397 193.718 50.8871 192.678 51.4091C192.134 50.4601 191.118 49.8432 189.936 49.8432C188.163 49.8432 186.745 51.2668 186.745 53.0463C186.745 54.8495 188.163 56.2494 189.936 56.2494C191.118 56.2494 192.3 55.6562 192.725 54.6597H192.489C192.016 54.6597 190.929 54.6834 190.338 54.6834C190.054 54.6834 189.936 54.6834 189.936 54.6597V52.7141C191.425 52.7141 193.505 52.7378 195.325 52.7378C195.302 52.9988 195.254 54.9682 194.711 55.68Z" fill="#0152FF"/>
<path d="M94.7263 63.1776C94.7263 63.7233 94.3008 64.0792 93.7099 64.0792H92.2444V60.971H93.5444C94.1826 60.971 94.5844 61.3269 94.5844 61.8726C94.5844 62.1099 94.4899 62.3234 94.2772 62.4658C94.5372 62.5844 94.7263 62.8692 94.7263 63.1776ZM93.4735 61.6591H93.048V62.1811H93.4735C93.6626 62.1811 93.7808 62.0862 93.7808 61.9201C93.7572 61.754 93.6626 61.6591 93.4735 61.6591ZM93.899 63.1064C93.899 62.9403 93.7808 62.8454 93.5917 62.8454H93.048V63.3674H93.5917C93.7808 63.3674 93.899 63.2725 93.899 63.1064Z" fill="#20C4F4"/>
<path d="M98.0827 64.0318V64.0793H97.2082L97.0191 63.6759H95.8609L95.6954 64.0793H94.8208V64.0318L96.2863 60.9236H96.6409L98.0827 64.0318ZM96.1445 62.9878H96.7118L96.4281 62.2286L96.1445 62.9878Z" fill="#20C4F4"/>
<path d="M102.29 60.971V64.0792H98.3664V60.971H99.17V63.3437H99.9264V60.971H100.73V63.3437H101.486V60.971H102.29Z" fill="#20C4F4"/>
<path d="M106.497 63.059C106.497 63.6047 106.119 64.0792 105.387 64.0792H103.992V60.971H106.214V61.6828H104.772V62.0862H105.363C106.143 62.0862 106.497 62.5133 106.497 63.059ZM105.694 63.059C105.694 62.8929 105.576 62.7505 105.363 62.7505H104.796V63.3674H105.363C105.576 63.3674 105.694 63.2013 105.694 63.059Z" fill="#20C4F4"/>
<path d="M109.641 60.9473V64.0792H108.838V63.0352V62.5132L107.207 64.0792H106.947V60.971H107.75V61.9438L107.727 62.4895L109.334 60.9473H109.641Z" fill="#20C4F4"/>
<path d="M112.619 63.1776C112.619 63.6996 112.194 64.1267 111.414 64.1267C110.705 64.1267 110.161 63.7233 110.161 62.9641H110.894C110.918 63.2251 111.083 63.4149 111.39 63.4149C111.721 63.4149 111.839 63.2488 111.839 63.0827C111.839 62.8929 111.698 62.7505 111.438 62.7505H111.107V62.1336H111.438C111.674 62.1336 111.816 62.015 111.816 61.8489C111.816 61.6828 111.674 61.5642 111.414 61.5642C111.154 61.5642 111.012 61.6828 110.989 61.8252H110.279C110.279 61.232 110.729 60.8998 111.414 60.8998C112.218 60.8998 112.549 61.3507 112.549 61.8252C112.549 62.0862 112.407 62.2997 112.194 62.4421C112.454 62.5844 112.619 62.8692 112.619 63.1776Z" fill="#20C4F4"/>
<path d="M115.787 60.971V64.0792H114.983V62.8454H113.943V64.0792H113.139V60.971H113.943V62.1099H114.983V60.971H115.787Z" fill="#20C4F4"/>
<path d="M118.411 63.3437V64.0792H116.425V60.971H118.363V61.7065H117.229V62.1574H118.269V62.8692H117.229V63.3437H118.411Z" fill="#20C4F4"/>
<path d="M118.765 62.5133C118.765 61.5642 119.403 60.8998 120.325 60.8998C121.152 60.8998 121.672 61.3744 121.838 62.0862H121.034C120.916 61.8252 120.68 61.6828 120.372 61.6828C119.923 61.6828 119.616 62.015 119.616 62.5133C119.616 63.0115 119.923 63.3437 120.372 63.3437C120.703 63.3437 120.963 63.1539 121.082 62.8929H121.885C121.743 63.6284 121.2 64.1267 120.349 64.1267C119.427 64.1267 118.765 63.4623 118.765 62.5133Z" fill="#20C4F4"/>
<path d="M125.809 63.1776C125.809 63.7233 125.383 64.0792 124.793 64.0792H123.327V60.971H124.627C125.265 60.971 125.667 61.3269 125.667 61.8726C125.667 62.1099 125.573 62.3234 125.36 62.4658C125.643 62.5844 125.809 62.8692 125.809 63.1776ZM124.556 61.6591H124.131V62.1811H124.556C124.745 62.1811 124.863 62.0862 124.863 61.9201C124.84 61.754 124.745 61.6591 124.556 61.6591ZM124.982 63.1064C124.982 62.9403 124.863 62.8454 124.674 62.8454H124.131V63.3674H124.674C124.863 63.3674 124.982 63.2725 124.982 63.1064Z" fill="#20C4F4"/>
<path d="M130.229 63.3437V64.7436H129.473V64.0792H127.369V60.971H128.173V63.3437H129.071V60.971H129.875V63.3437H130.229Z" fill="#20C4F4"/>
<path d="M133.444 60.9473V64.0792H132.64V63.0352V62.5132L131.009 64.0792H130.749V60.971H131.553V61.9438L131.529 62.4895L133.136 60.9473H133.444Z" fill="#20C4F4"/>
<path d="M136.138 63.7708V64.1267H135.382V63.7708C134.578 63.7471 133.916 63.3437 133.916 62.5133C133.916 61.6828 134.578 61.2795 135.382 61.232V60.8998H136.138V61.232C136.966 61.2557 137.604 61.6354 137.604 62.5133C137.58 63.3912 136.918 63.7471 136.138 63.7708ZM135.382 63.1064V61.9438C135.027 61.9675 134.72 62.0625 134.72 62.5133C134.72 62.9641 135.075 63.0827 135.382 63.1064ZM136.777 62.5133C136.777 62.0625 136.469 61.9438 136.115 61.9438V63.1064C136.446 63.0827 136.777 62.9641 136.777 62.5133Z" fill="#20C4F4"/>
<path d="M140.582 62.0862C140.582 62.7743 140.109 63.2251 139.424 63.2251H138.88V64.0792H138.077V60.971H139.447C140.109 60.971 140.582 61.4218 140.582 62.0862ZM139.755 62.0862C139.755 61.8252 139.589 61.6591 139.329 61.6591H138.857V62.5133H139.329C139.589 62.5133 139.755 62.3709 139.755 62.0862Z" fill="#20C4F4"/>
<path d="M143.726 64.0318V64.0793H142.851L142.662 63.6759H141.504L141.338 64.0793H140.464V64.0318L141.929 60.9236H142.284L143.726 64.0318ZM141.811 62.9878H142.378L142.095 62.2286L141.811 62.9878Z" fill="#20C4F4"/>
<path d="M146.775 64.0318V64.0792H145.853L145.239 63.059L144.624 64.0792H143.702V64.0318L144.719 62.4421L143.82 61.0185V60.9948H144.719L145.262 61.8726L145.782 60.9948H146.68V61.0185L145.782 62.4658L146.775 64.0318Z" fill="#20C4F4"/>
<path d="M148.004 62.4658H149.919V63.1064H148.004V62.4658Z" fill="#20C4F4"/>
<path d="M154.221 60.971V64.0792H153.417V62.8454H152.377V64.0792H151.573V60.971H152.377V62.1099H153.417V60.971H154.221Z" fill="#20C4F4"/>
<path d="M157.766 64.0318V64.0793H156.892L156.703 63.6759H155.544L155.379 64.0793H154.504V64.0318L155.97 60.9236H156.324L157.766 64.0318ZM155.852 62.9878H156.419L156.135 62.2286L155.852 62.9878Z" fill="#20C4F4"/>
<path d="M161.974 60.971V64.0792H158.05V60.971H158.853V63.3437H159.61V60.971H160.414V63.3437H161.17V60.971H161.974Z" fill="#20C4F4"/>
<path d="M165.519 64.0318V64.0793H164.645L164.455 63.6759H163.297L163.132 64.0793H162.257V64.0318L163.723 60.9236H164.077L165.519 64.0318ZM163.605 62.9878H164.172L163.888 62.2286L163.605 62.9878Z" fill="#20C4F4"/>
<path d="M166.772 60.971H169.348V64.0792H168.545V61.7065H167.599V64.0792H166.796V60.971H166.772Z" fill="#20C4F4"/>
<path d="M172.516 62.0862C172.516 62.7743 172.043 63.2251 171.357 63.2251H170.814V64.0792H170.01V60.971H171.381C172.067 60.971 172.516 61.4218 172.516 62.0862ZM171.688 62.0862C171.688 61.8252 171.523 61.6591 171.263 61.6591H170.79V62.5133H171.263C171.547 62.5133 171.688 62.3709 171.688 62.0862Z" fill="#20C4F4"/>
<path d="M172.776 62.5133C172.776 61.5642 173.438 60.8998 174.407 60.8998C175.352 60.8998 176.038 61.5642 176.038 62.5133C176.038 63.4623 175.376 64.1267 174.407 64.1267C173.461 64.1267 172.776 63.4623 172.776 62.5133ZM175.21 62.5133C175.21 62.015 174.903 61.6828 174.407 61.6828C173.934 61.6828 173.603 62.015 173.603 62.5133C173.603 63.0115 173.91 63.3437 174.407 63.3437C174.879 63.3437 175.21 63.0115 175.21 62.5133Z" fill="#20C4F4"/>
<path d="M178.543 63.7708V64.1267H177.787V63.7708C176.983 63.7471 176.321 63.3437 176.321 62.5133C176.321 61.6828 176.983 61.2795 177.787 61.232V60.8998H178.543V61.232C179.37 61.2557 180.009 61.6354 180.009 62.5133C180.009 63.3912 179.347 63.7471 178.543 63.7708ZM177.81 63.1064V61.9438C177.456 61.9675 177.149 62.0625 177.149 62.5133C177.149 62.9641 177.479 63.0827 177.81 63.1064ZM179.205 62.5133C179.205 62.0625 178.898 61.9438 178.543 61.9438V63.1064C178.874 63.0827 179.205 62.9641 179.205 62.5133Z" fill="#20C4F4"/>
<path d="M182.443 63.3437V64.0792H180.458V60.971H182.396V61.7065H181.261V62.1574H182.301V62.8692H181.261V63.3437H182.443Z" fill="#20C4F4"/>
<path d="M182.821 62.5133C182.821 61.5642 183.46 60.8998 184.381 60.8998C185.209 60.8998 185.729 61.3744 185.894 62.0862H185.091C184.972 61.8252 184.736 61.6828 184.429 61.6828C183.98 61.6828 183.672 62.015 183.672 62.5133C183.672 63.0115 183.98 63.3437 184.429 63.3437C184.76 63.3437 185.02 63.1539 185.138 62.8929H185.941C185.8 63.6284 185.256 64.1267 184.405 64.1267C183.46 64.1267 182.821 63.4623 182.821 62.5133Z" fill="#20C4F4"/>
<path d="M186.178 62.5133C186.178 61.5642 186.816 60.8998 187.738 60.8998C188.565 60.8998 189.085 61.3744 189.251 62.0862H188.447C188.329 61.8252 188.092 61.6828 187.785 61.6828C187.336 61.6828 187.029 62.015 187.029 62.5133C187.029 63.0115 187.336 63.3437 187.785 63.3437C188.116 63.3437 188.376 63.1539 188.494 62.8929H189.298C189.156 63.6284 188.612 64.1267 187.762 64.1267C186.84 64.1267 186.178 63.4623 186.178 62.5133Z" fill="#20C4F4"/>
<path d="M192.394 60.9473V64.0792H191.591V63.0352V62.5132L189.96 64.0792H189.723V60.971H190.527V61.9438L190.503 62.4895L192.111 60.9473H192.394Z" fill="#20C4F4"/>
<path d="M195.42 60.971V64.0792H194.616V63.1064H194.191L193.694 64.0792H192.844V64.0318L193.434 62.9641C193.08 62.798 192.914 62.4421 192.914 62.0624C192.914 61.5167 193.293 60.971 194.025 60.971H195.42ZM193.742 62.0387C193.742 62.2285 193.884 62.4421 194.12 62.4421H194.64V61.6828H194.12C193.86 61.6828 193.742 61.8489 193.742 62.0387Z" fill="#20C4F4"/>
<path d="M86.6897 25.2621H85.5078V52.7853H86.6897V25.2621Z" fill="#0152FF"/>
<path d="M38.7302 0.704834C17.6696 0.704834 0.603699 17.8356 0.603699 38.9762C0.603699 46.0231 2.5183 52.6429 5.82748 58.3136L31.5682 32.4751H16.866C15.2114 32.4751 13.7222 31.4786 13.084 29.9363C12.4458 28.3941 12.8004 26.6383 13.9822 25.4519L23.9807 15.4155C24.7371 14.6562 25.8008 14.2054 26.8881 14.2054H55.1343C59.2708 14.2054 62.6509 17.5984 62.6509 21.7505V50.2702C62.6509 51.3617 62.2017 52.4056 61.4454 53.1886L51.4233 63.2488C50.2414 64.4352 48.4923 64.7911 46.9559 64.1504C45.4195 63.5098 44.4267 62.015 44.4267 60.3541V45.4299L18.4969 71.4109C24.3589 75.1122 31.2845 77.2714 38.7302 77.2714C59.7908 77.2714 76.8803 60.1406 76.8803 38.9762C76.8803 17.8356 59.7908 0.704834 38.7302 0.704834Z" fill="#0152FF"/>
<path d="M46.9086 60.1643C46.9086 61.6117 48.6341 62.3235 49.6505 61.3032L59.649 51.2667C59.9563 50.9583 60.1217 50.5549 60.1217 50.1279V25.9265V21.5845C60.1217 18.8084 57.8762 16.5306 55.087 16.5306H50.7615H26.8644C26.439 16.5306 26.0371 16.6967 25.7299 17.0052L15.7314 27.0416C14.715 28.0619 15.4241 29.7939 16.866 29.7939H37.572L7.1748 60.3304C9.68033 64.0081 12.8004 67.2349 16.3932 69.8449L46.9086 39.2135V60.1643Z" fill="#20C4F4"/>
</svg>
